<?xml version="1.0" encoding="UTF-8" standalone="no"?>
<svg
   xml:space="preserve"
   viewBox="0 0 64 64"
   version="1.1"
   id="svg8"
   sodipodi:docname="Extension.svg"
   inkscape:version="1.3 (0e150ed6c4, 2023-07-21)"
   xmlns:inkscape="http://www.inkscape.org/namespaces/inkscape"
   xmlns:sodipodi="http://sodipodi.sourceforge.net/DTD/sodipodi-0.dtd"
   xmlns="http://www.w3.org/2000/svg"
   xmlns:svg="http://www.w3.org/2000/svg"><defs
     id="defs8" /><sodipodi:namedview
     id="namedview8"
     pagecolor="#ffffff"
     bordercolor="#666666"
     borderopacity="1.0"
     inkscape:showpageshadow="2"
     inkscape:pageopacity="0.0"
     inkscape:pagecheckerboard="0"
     inkscape:deskcolor="#d1d1d1"
     inkscape:zoom="18.125"
     inkscape:cx="34.924138"
     inkscape:cy="32.027586"
     inkscape:window-width="2089"
     inkscape:window-height="1243"
     inkscape:window-x="213"
     inkscape:window-y="40"
     inkscape:window-maximized="0"
     inkscape:current-layer="svg8" /><path
     fill="#3B7EB0"
     d="M0 0h64v64H0z"
     id="path1" /><path
     fill="#FFF"
     d="M14 14h32v36H14z"
     id="path2" /><path
     fill="#3B7EB0"
     d="M22 42h8v4h-8z"
     id="path3" /><path
     fill="#3B7EB0"
     d="M32 42h8v4h-8z"
     opacity=".5"
     id="path4" /><path
     fill="#3B7EB0"
     d="M22 18h14v2H22zM22 32h2v2h-2zM22 36h2v2h-2z"
     id="path5" /><path
     fill="#3B7EB0"
     d="M26 32h16v2H26zM26 36h16v2H26zM22 22h20v8H22z"
     opacity=".5"
     id="path6" /><path
     fill="#3B7EB0"
     d="M14 14h4v4h-4z"
     id="path7" /><path
     fill="#3B7EB0"
     d="M16 14h2v36h-2z"
     opacity=".5"
     id="path8" /><text
     xml:space="preserve"
     style="font-style:normal;font-weight:normal;font-size:40px;line-height:125%;font-family:sans-serif;letter-spacing:0px;word-spacing:0px;fill:#000000;fill-opacity:1;stroke:none;stroke-width:1px;stroke-linecap:butt;stroke-linejoin:miter;stroke-opacity:1"
     x="32.716324"
     y="62.570438"
     id="text9"><tspan
       sodipodi:role="line"
       id="tspan9"
       x="32.716324"
       y="62.570438">+</tspan></text></svg>
